<?xml version="1.0" encoding="iso-8859-1"?>
<!-- Generator: Adobe Illustrator 25.0.1, SVG Export Plug-In . SVG Version: 6.00 Build 0)  -->
<svg version="1.1" id="Layer_1" xmlns="http://www.w3.org/2000/svg" xmlns:xlink="http://www.w3.org/1999/xlink" x="0px" y="0px"
	 width="1080px" height="1080px" viewBox="0 0 1080 1080" enable-background="new 0 0 1080 1080" xml:space="preserve">
<g>
	<path fill="#8BBABC" d="M493.561,478.119c0,9.608,7.789,17.398,17.397,17.398h58.083c9.608,0,17.397-7.789,17.397-17.398V97.872
		c0-9.608-7.789-17.397-17.397-17.397h-58.083c-9.608,0-17.397,7.789-17.397,17.397V478.119z"/>
	<path fill="#212B3B" d="M973.539,461.922l-104.597-18.29c-6.693-22.292-15.576-43.634-26.424-63.766l61.035-86.904
		c7.914-11.269,6.584-26.595-3.153-36.332l-74.505-74.505c-5.485-5.485-12.744-8.302-20.051-8.302
		c-5.666,0-11.36,1.693-16.281,5.149l-86.904,61.035c-20.018-10.786-41.233-19.626-63.389-26.305v50.822
		c13.931,4.974,27.497,11.002,40.481,17.998l26.256,14.147l24.407-17.142l73.186-51.4l50.797,50.797l-51.4,73.185l-17.141,24.407
		l14.147,26.256c9.364,17.379,16.996,35.798,22.685,54.745l8.571,28.55l29.364,5.135l88.083,15.403v71.838l-88.083,15.402
		l-29.364,5.135l-8.571,28.55c-5.689,18.947-13.321,37.366-22.685,54.745l-14.147,26.256l17.141,24.407l51.4,73.185l-50.797,50.797
		l-73.186-51.4l-24.407-17.142l-26.257,14.148c-17.378,9.364-35.797,16.996-54.744,22.684l-28.55,8.572l-5.135,29.364
		l-15.402,88.083h-71.838l-15.402-88.083l-5.135-29.364l-28.55-8.572c-18.948-5.688-37.366-13.321-54.744-22.684l-26.257-14.148
		l-24.407,17.142l-73.186,51.4l-50.797-50.797l51.4-73.186l17.142-24.407l-14.147-26.257c-9.364-17.378-16.996-35.797-22.685-54.744
		l-8.571-28.55l-29.364-5.135l-88.083-15.403v-71.838l88.083-15.402l29.364-5.135l8.571-28.55
		c5.689-18.948,13.321-37.366,22.685-54.744l14.147-26.257l-17.142-24.407l-51.4-73.186l50.797-50.797l73.186,51.4l24.407,17.142
		l26.256-14.147c12.984-6.996,26.55-13.024,40.481-17.998v-50.822c-22.156,6.679-43.371,15.519-63.389,26.305l-86.904-61.035
		c-4.921-3.456-10.617-5.149-16.281-5.149c-7.308,0-14.566,2.817-20.051,8.302l-74.505,74.505
		c-9.737,9.737-11.066,25.064-3.152,36.332l61.035,86.904c-10.847,20.131-19.731,41.474-26.424,63.766l-104.597,18.29
		C92.897,464.295,83,476.072,83,489.843v105.366c0,13.77,9.897,25.548,23.461,27.92l104.597,18.29
		c6.693,22.292,15.576,43.634,26.424,63.766l-61.035,86.904c-7.914,11.269-6.584,26.595,3.152,36.332l74.505,74.506
		c5.485,5.485,12.743,8.302,20.051,8.302c5.665,0,11.36-1.693,16.281-5.149l86.904-61.035
		c20.132,10.848,41.473,19.732,63.766,26.424l18.29,104.596c2.372,13.565,14.149,23.462,27.92,23.462h105.366
		c13.77,0,25.548-9.897,27.92-23.462l18.29-104.596c22.293-6.693,43.634-15.576,63.766-26.424l86.904,61.035
		c4.921,3.455,10.617,5.149,16.281,5.149c7.309,0,14.566-2.817,20.051-8.302l74.505-74.506c9.737-9.737,11.067-25.063,3.153-36.332
		l-61.035-86.904c10.847-20.132,19.731-41.474,26.424-63.766l104.597-18.29c13.564-2.372,23.461-14.15,23.461-27.92V489.843
		C997,476.072,987.103,464.295,973.539,461.922z"/>
</g>
<path fill="#212B3B" d="M361.581,541.776c0,98.331,79.713,178.043,178.043,178.043s178.043-79.713,178.043-178.043
	c0-66.541-36.509-124.547-90.583-155.104v51.209c29.585,24.944,48.415,62.259,48.415,103.895
	c0,74.922-60.953,135.875-135.875,135.875s-135.875-60.953-135.875-135.875c0-42.365,19.493-80.259,49.977-105.197v-50.78
	C398.794,416.115,361.581,474.596,361.581,541.776z"/>

</svg>
